<svg width="385" height="385" viewBox="0 0 385 385" fill="none" xmlns="http://www.w3.org/2000/svg">
<rect width="385" height="385" rx="36" fill="#292929"/>
<path d="M56.5117 202.016V193.266L91.5117 177.854V187.922L67.5487 197.542L67.8718 197.02V198.263L67.5487 197.741L91.5117 207.361V217.428L56.5117 202.016ZM109.559 218L99.168 179.818H109.882L115.798 205.472H116.146L122.311 179.818H132.826L139.09 205.322H139.413L145.23 179.818H155.919L145.553 218H134.342L127.779 193.987H127.307L120.745 218H109.559ZM178.011 218.746C174.084 218.746 170.703 217.95 167.869 216.359C165.052 214.752 162.881 212.482 161.356 209.548C159.832 206.598 159.069 203.11 159.069 199.083C159.069 195.156 159.832 191.709 161.356 188.742C162.881 185.776 165.027 183.464 167.795 181.807C170.579 180.15 173.843 179.321 177.589 179.321C180.108 179.321 182.452 179.727 184.623 180.539C186.811 181.335 188.717 182.536 190.341 184.143C191.981 185.751 193.257 187.773 194.169 190.209C195.08 192.628 195.536 195.462 195.536 198.71V201.619H163.295V195.056H185.568C185.568 193.531 185.237 192.181 184.574 191.004C183.911 189.828 182.991 188.908 181.814 188.245C180.654 187.566 179.304 187.226 177.763 187.226C176.155 187.226 174.73 187.599 173.487 188.344C172.261 189.074 171.3 190.06 170.604 191.303C169.907 192.529 169.551 193.896 169.535 195.404V201.643C169.535 203.533 169.883 205.165 170.579 206.54C171.291 207.916 172.294 208.977 173.586 209.722C174.879 210.468 176.412 210.841 178.185 210.841C179.362 210.841 180.439 210.675 181.417 210.344C182.394 210.012 183.231 209.515 183.927 208.852C184.623 208.189 185.154 207.377 185.518 206.416L195.312 207.062C194.815 209.416 193.796 211.471 192.255 213.227C190.73 214.967 188.758 216.326 186.339 217.304C183.936 218.265 181.16 218.746 178.011 218.746ZM202.645 218V167.091H213.235V186.232H213.558C214.022 185.204 214.693 184.16 215.572 183.099C216.466 182.022 217.626 181.127 219.052 180.415C220.493 179.686 222.283 179.321 224.421 179.321C227.205 179.321 229.774 180.05 232.127 181.509C234.48 182.95 236.361 185.129 237.77 188.046C239.178 190.946 239.883 194.584 239.883 198.959C239.883 203.218 239.195 206.814 237.819 209.747C236.461 212.664 234.604 214.876 232.251 216.384C229.915 217.876 227.296 218.621 224.396 218.621C222.341 218.621 220.593 218.282 219.151 217.602C217.726 216.923 216.558 216.069 215.646 215.042C214.735 213.998 214.039 212.946 213.558 211.885H213.086V218H202.645ZM213.011 198.909C213.011 201.179 213.326 203.16 213.956 204.85C214.586 206.54 215.497 207.858 216.69 208.803C217.883 209.731 219.333 210.195 221.04 210.195C222.764 210.195 224.222 209.722 225.415 208.778C226.608 207.817 227.512 206.491 228.125 204.8C228.755 203.094 229.069 201.13 229.069 198.909C229.069 196.705 228.763 194.766 228.15 193.092C227.537 191.419 226.633 190.109 225.44 189.165C224.247 188.22 222.78 187.748 221.04 187.748C219.317 187.748 217.858 188.204 216.665 189.115C215.489 190.027 214.586 191.319 213.956 192.993C213.326 194.667 213.011 196.639 213.011 198.909ZM285.323 164.705L268.917 225.656H259.794L276.2 164.705H285.323ZM327.488 202.016L292.488 217.428V207.361L316.451 197.741L316.128 198.263V197.02L316.451 197.542L292.488 187.922V177.854L327.488 193.266V202.016Z" fill="white"/>
<path opacity="0.03" d="M102 192.5C102 176.009 106.022 160.825 114.067 146.948C122.111 133.072 133.072 122.111 146.948 114.067C160.825 106.022 176.009 102 192.5 102C208.991 102 224.175 106.022 238.052 114.067C251.928 122.111 262.889 133.072 270.933 146.948C278.978 160.825 283 176.009 283 192.5C283 208.991 278.978 224.175 270.933 238.052C262.889 251.928 251.928 262.889 238.052 270.933C224.175 278.978 208.991 283 192.5 283C176.009 283 160.825 278.978 146.948 270.933C133.072 262.889 122.111 251.928 114.067 238.052C106.022 224.175 102 208.991 102 192.5ZM187.07 114.067C179.026 116.48 171.786 123.519 165.35 135.183C163.339 139.206 161.529 143.228 159.92 147.25H187.07V114.067ZM148.457 147.25C150.066 141.217 152.479 135.384 155.697 129.753C157.708 126.133 159.92 122.714 162.333 119.497C147.853 125.128 136.189 134.379 127.34 147.25H148.457ZM141.82 187.07C142.222 177.014 143.429 167.562 145.44 158.713H120.703C116.681 167.562 114.268 177.014 113.463 187.07H141.82ZM156.903 158.713C154.49 167.964 153.283 177.417 153.283 187.07H187.07V158.713H156.903ZM197.93 158.713V187.07H231.717C231.717 177.417 230.51 167.964 228.097 158.713H197.93ZM153.283 197.93C153.283 207.583 154.49 217.036 156.903 226.287H187.07V197.93H153.283ZM197.93 197.93V226.287H228.097C230.51 217.438 231.717 207.986 231.717 197.93H197.93ZM159.92 237.75C161.529 242.174 163.339 246.197 165.35 249.817C171.786 261.481 179.026 268.52 187.07 270.933V237.75H159.92ZM162.333 265.503C159.92 262.286 157.708 258.867 155.697 255.247C152.479 249.616 150.066 243.783 148.457 237.75H127.34C136.189 250.621 147.853 259.872 162.333 265.503ZM145.44 226.287C143.429 217.036 142.222 207.583 141.82 197.93H113.463C114.268 207.986 116.681 217.438 120.703 226.287H145.44ZM222.667 265.503C237.147 259.872 248.811 250.621 257.66 237.75H236.543C234.934 243.783 232.521 249.616 229.303 255.247C227.292 258.867 225.08 262.286 222.667 265.503ZM197.93 237.75V270.933C205.974 268.52 213.214 261.481 219.65 249.817C221.661 246.197 223.471 242.174 225.08 237.75H197.93ZM239.56 226.287H264.297C268.319 217.438 270.732 207.986 271.537 197.93H243.18C242.778 207.583 241.571 217.036 239.56 226.287ZM271.537 187.07C270.732 177.014 268.319 167.562 264.297 158.713H239.56C241.571 167.562 242.778 177.014 243.18 187.07H271.537ZM229.303 129.753C232.119 134.982 234.532 140.814 236.543 147.25H257.66C248.811 134.379 237.147 125.128 222.667 119.497C225.08 122.714 227.292 126.133 229.303 129.753ZM225.08 147.25C223.471 143.228 221.661 139.206 219.65 135.183C213.214 123.519 205.974 116.48 197.93 114.067V147.25H225.08Z" fill="white"/>
</svg>
