<svg width="385" height="385" viewBox="0 0 385 385" fill="none" xmlns="http://www.w3.org/2000/svg">
<path d="M25 169.797C25 155.826 36.2705 144.5 50.1734 144.5H121.175V169.797H25Z" fill="white"/>
<path d="M144.412 180.824C144.412 194.796 155.683 206.122 169.586 206.122H240.588C240.588 192.15 229.317 180.824 215.414 180.824H144.412Z" fill="white"/>
<path d="M25 215.203C25 229.174 36.2705 240.5 50.1734 240.5H215.414C229.317 240.5 240.588 229.174 240.588 215.203H25Z" fill="white"/>
<path d="M360 169.797C360 155.826 348.729 144.5 334.827 144.5L169.586 144.5C155.683 144.5 144.412 155.826 144.412 169.797L360 169.797Z" fill="white"/>
<path d="M25 180.824H121.175V206.122H25V180.824Z" fill="white"/>
<path d="M263.825 240.5V180.824H288.998V240.5H263.825Z" fill="white"/>
<path d="M334.827 240.5V180.824H360V240.5H334.827Z" fill="white"/>
</svg>
