<svg width="385" height="385" viewBox="0 0 385 385" fill="none" xmlns="http://www.w3.org/2000/svg">
<path d="M92.9959 88.649L103.412 99.7104L108.926 94.1622L98.819 83.1059L104.022 78.2075L100.653 74.5337L84.3887 89.9086L87.7626 93.5824L92.9959 88.649ZM269.907 81.3015L259.191 75.4484L266.234 62.5577L259.496 58.8789L249.694 76.3981L267.183 86.2298L269.907 81.3015ZM274.501 92.0529L276.34 91.1332L282.773 96.6764L282.158 98.5158L288.591 104.059L295.329 83.4757L287.671 77.0129L268.038 86.8446L274.501 92.0529ZM287.397 84.6703L284.642 91.743L280.964 88.684L287.397 84.6703ZM228.531 47.1827L220.874 45.6483L216.585 65.3117L224.242 67.1511L228.531 47.1827ZM249.359 69.9052L238.023 65.6166L243.231 51.8062L236.188 49.0471L228.836 67.7909L247.55 75.1735L249.359 69.9052ZM293.215 111.716L306.08 102.494L296.279 115.695L299.957 120.598L315.607 115.055L302.741 124.272L307.03 130.12L323.295 118.144L316.557 108.927L304.611 113.216L312.268 103.079L305.531 93.5524L289.266 105.528L293.215 111.716ZM335.821 141.791L339.494 140.262L337.355 135.024L333.676 136.553L335.821 141.791ZM336.74 133.829L334.596 128.591L330.922 129.815L333.066 135.359L336.74 133.829ZM128.559 77.2878C131.313 78.2075 134.992 77.5927 138.971 75.7583C143.259 73.9189 146.013 71.7746 147.243 69.2954C148.772 66.8462 148.772 63.7523 147.243 60.6883C145.708 57.6243 143.564 55.45 140.81 54.8352C138.051 53.9205 134.377 54.5303 130.394 56.3697C126.105 58.2091 123.351 60.3484 122.126 62.8326C120.592 65.2818 120.592 68.3757 122.126 71.4397C123.351 74.8386 125.495 76.678 128.559 77.2878ZM129.169 63.7823C129.784 62.5577 130.703 61.638 132.233 61.0232C133.762 60.4134 134.992 60.4134 136.521 60.7183C137.746 61.0232 138.666 62.2478 139.276 63.7823C139.89 65.3117 139.89 66.8462 139.585 68.0708C138.971 69.2954 138.051 70.2151 136.521 70.8249C134.992 71.4397 133.762 71.7446 132.538 71.1298C131.313 70.8249 130.394 69.6003 129.784 68.0708C128.864 66.5363 128.864 65.0068 129.169 63.7823ZM87.4827 118.144L82.5843 114.775L85.3384 111.102C85.9532 110.182 86.2581 109.877 86.8729 109.572C87.4827 109.572 88.0975 109.572 88.7073 109.877C89.3221 110.182 89.627 110.492 90.2418 110.797C91.1615 111.406 91.7713 111.716 92.3861 111.716L97.2845 104.639L96.9796 104.334C96.3648 104.639 94.8353 104.334 92.691 102.799C92.3861 102.799 92.0812 102.494 92.0812 102.494C90.8516 101.575 89.9369 101.27 89.3221 101.27C88.7073 101.27 88.0975 101.27 87.1778 101.885C87.4827 100.965 87.1778 99.7403 86.8729 98.8207C86.2581 97.901 85.6483 96.9813 84.7286 96.3715C83.8089 95.7567 83.1941 95.4518 82.2794 95.4518C81.3597 95.1469 80.7449 95.4518 79.8252 95.7567C79.2155 96.0616 78.2958 96.6764 77.681 97.2912C76.7663 98.2059 75.8466 99.1256 74.9269 100.66L66.3497 113.246L82.9192 124.607L87.4827 118.144ZM80.7449 108.313L77.9909 111.991L75.5417 109.847L77.9909 106.173C78.6007 104.944 79.2155 104.334 79.8252 104.029C80.44 104.029 80.7449 104.029 81.3597 104.334C81.6646 104.944 81.9695 105.254 81.9695 105.863C81.6646 106.478 81.3597 107.398 80.7449 108.313ZM59.8868 148.254C63.2557 149.479 66.0148 149.784 68.464 148.559C71.2231 147.335 73.3624 144.581 75.2018 140.567C77.0412 136.278 77.651 132.879 77.0412 130.12C76.4264 127.366 74.2821 125.222 71.2231 123.657C68.1591 122.128 65.0951 122.128 62.6459 123.353C59.8868 124.577 57.7426 127.336 55.9082 131.35C54.0688 135.633 53.454 139.037 54.0688 141.791C54.6836 144.581 56.8279 146.725 59.8868 148.254ZM60.8065 133.829C61.4213 132.3 62.336 131.38 63.5656 131.07C64.7902 130.765 66.3197 131.07 67.8492 131.685C69.3837 132.3 70.3034 133.214 70.9132 134.439C71.528 135.668 71.2231 136.893 70.6083 138.423C69.9935 139.952 69.0788 140.872 67.8492 141.182C66.6246 141.487 65.0951 141.182 63.5656 140.567C62.0311 139.647 60.8065 138.727 60.5016 137.813C59.8868 136.583 60.1967 135.359 60.8065 133.829ZM65.7099 169.757L58.6623 168.533L60.1967 161.455C60.8065 158.701 60.8065 156.557 59.8868 154.687C58.9672 153.158 57.7426 151.928 55.5983 151.623C53.454 151.013 51.9245 151.623 50.395 152.848C48.8605 154.072 47.9408 156.217 47.331 159.006L44.5719 173.736L64.5153 177.72L65.7099 169.757ZM55.5983 163.629L54.6836 167.918L50.395 166.998L51.3147 162.71C51.6196 161.485 51.9245 160.875 52.2294 160.26C52.5393 159.955 53.1491 159.651 54.0688 159.955C54.9885 159.955 55.2934 160.26 55.5983 160.875C55.9082 161.455 55.9082 162.375 55.5983 163.629ZM191.408 61.638C193.553 63.1675 196.307 63.7823 199.985 64.0871C204.884 64.392 208.253 64.0872 210.397 62.8626C212.541 61.9429 213.766 60.1035 214.071 57.6243C214.381 56.0948 213.766 54.5603 212.846 53.6406C211.927 52.7259 210.092 51.8062 207.948 51.1914L200.9 49.6619C199.676 49.6619 198.756 49.357 198.451 49.0471C197.841 48.7422 197.841 48.4373 197.841 48.1274C197.841 47.8225 198.146 47.5176 198.756 47.2127C199.371 46.9028 199.985 46.9028 200.9 46.9028C202.13 46.9028 203.044 47.2127 203.659 47.5176C204.269 47.8225 204.579 48.4373 204.579 49.0471L213.766 49.6619C213.766 47.5176 212.541 45.9881 210.702 44.7585C208.868 43.534 205.804 42.9242 201.515 42.6143C197.531 42.3094 194.777 42.6143 192.938 43.534C191.103 44.4537 190.184 45.9881 189.874 48.1274C189.874 49.9668 190.184 51.1914 191.408 52.416C192.328 53.6406 194.162 54.2554 196.617 54.8702L202.435 55.7849C203.354 55.7849 204.269 56.0948 204.579 56.3997C204.884 56.7046 205.189 57.3194 205.189 57.6243C205.189 57.9292 204.884 58.2391 204.269 58.544C203.659 58.8489 202.74 58.8489 201.82 58.8489C200.9 58.8489 199.985 58.544 199.371 58.2391C198.756 57.9292 198.451 57.6243 198.451 57.0145L188.959 56.3997C188.649 58.544 189.569 60.3834 191.408 61.638ZM184.361 122.158L183.446 143.661H162.893C160.748 141.517 157.684 140.292 154.316 140.292C147.578 140.292 142.065 145.835 142.065 152.573C142.065 159.311 147.578 164.854 154.316 164.854C157.684 164.854 160.748 163.629 162.893 161.485H182.831L177.318 277.601C158.299 274.228 141.76 264.706 129.169 251.165L139.89 241.948H102.218V274.812L112.939 265.59C130.423 284.644 154.62 297.54 181.911 300.294L192.358 311.995L202.465 300.324C230.061 297.875 254.287 285.289 272.052 266.54L281.853 275.147V242.558H244.151L255.787 252.39C242.926 265.9 225.742 275.422 206.723 278.516L202.13 162.1H221.758C223.903 164.244 226.967 165.469 230.335 165.469C237.073 165.469 242.586 159.925 242.586 153.188C242.586 146.45 237.073 140.902 230.335 140.902C226.967 140.902 223.903 142.131 221.758 144.271H201.545L200.625 122.773C208.588 119.404 214.101 111.716 213.796 102.494C213.796 90.8283 204.304 81.3015 192.633 81.3015C180.992 81.3015 171.47 90.8283 171.47 102.494C171.5 111.406 176.703 118.759 184.361 122.158ZM192.968 93.5824C198.176 93.5824 202.16 97.871 202.16 102.799C202.16 108.038 197.871 112.021 192.968 112.021C187.765 112.021 183.781 107.733 183.781 102.799C183.751 97.5661 187.73 93.5824 192.968 93.5824ZM68.464 233.951C68.344 233.921 68.1891 233.921 68.0641 233.891C68.2191 233.951 68.344 233.951 68.464 233.951ZM162.003 67.1511L160.169 59.7686L169.965 57.6243L168.741 52.7259L158.939 54.8702L158.634 52.1111L170.58 49.357L169.356 44.4537L149.722 49.0471L154.316 68.7106L162.003 67.1511ZM310.674 139.342H312.818L315.882 147.335L314.353 148.559L317.412 156.557L333.066 141.517L329.388 132.3L307.305 131.685L310.674 139.342ZM325.409 138.727L319.896 143.631L318.056 139.037L325.409 138.727ZM317.751 157.781L321.425 179.894L326.634 178.974L324.184 164.854L326.634 164.244L328.468 174.995L333.371 174.076L331.532 163.324L333.981 163.019L336.435 176.525L341.334 175.605L337.66 154.412L317.751 157.781ZM330.922 187.581L325.409 186.971C319.896 186.357 314.687 193.429 313.768 202.316L312.848 211.533C312.238 219.526 314.992 226.263 318.671 229.667C318.056 231.197 317.751 233.036 317.137 234.566C312.543 234.261 306.725 238.549 303.356 245.317L299.068 253.619C295.394 260.692 295.394 267.735 298.453 271.444L298.148 271.139C296.618 273.283 295.084 275.422 293.554 277.292C289.571 275.457 282.833 277.601 277.29 282.53L270.247 288.688C264.854 293.496 262.1 299.774 263.14 304.063L263.17 304.033V304.338C263.14 304.248 263.14 304.153 263.14 304.063C260.995 305.287 258.576 306.817 256.432 308.046C252.758 305.287 246.325 304.982 239.557 307.432L230.98 310.8C224.547 313.56 219.954 318.183 219.034 322.472V322.162C216.28 322.777 213.521 323.391 210.767 323.696C208.313 320.017 202.495 317.538 195.757 317.538H186.57C180.137 317.538 174.624 319.683 171.865 323.081C168.806 322.472 166.047 321.857 162.983 321.247C161.758 317.263 157.165 312.945 151.347 310.8L142.769 307.432C136.951 305.287 131.128 305.287 127.424 307.127C125.28 305.592 122.831 304.368 120.687 302.838C120.382 298.55 117.928 293.311 113.334 289.328L106.291 283.175C101.698 278.886 96.4897 277.017 92.2012 277.322C89.752 274.567 87.9126 271.778 85.7683 269.024C85.4634 269.329 85.4634 269.634 85.1585 269.944C87.6077 265.96 86.9929 259.497 83.9339 253.339L79.6453 245.042C76.8862 239.189 72.2927 235.21 68.3091 234.291C68.2791 234.166 68.2491 234.046 68.2191 233.951C67.6693 233.861 67.1494 233.801 66.6896 233.771C67.2094 233.771 67.7293 233.831 68.2191 233.921C67.6043 231.322 66.7496 228.963 66.1648 226.603C69.2288 223.539 70.7632 217.996 70.1485 211.563L69.2288 202.346C68.3091 193.429 63.1058 186.357 57.5926 187.001L52.0794 187.611C46.5663 188.226 42.8875 196.218 43.8072 205.13L44.7269 214.352C45.6466 223.264 50.8548 230.337 56.368 229.727L58.8172 229.422C59.397 231.502 60.2867 233.861 60.8965 235.975L63.7156 234.656L60.9615 236.19C60.9315 236.13 60.9315 236.035 60.8965 235.975L58.5123 237.11C53.6089 239.559 52.9991 248.471 56.9778 256.463L61.2664 264.766C65.2501 272.758 72.5976 277.357 77.531 274.902L82.7393 272.453L79.6753 273.983C81.5097 276.437 83.3491 278.886 85.4934 281.365L83.654 283.205C79.9802 287.188 82.4294 295.486 89.1672 301.644L96.2148 307.796C102.953 313.954 111.56 315.489 115.234 311.475L117.073 309.331C118.907 310.556 120.747 311.475 122.586 312.7L121.666 315.454C119.827 320.692 125.035 327.43 133.612 330.834L142.19 334.203C150.762 337.572 159.369 336.037 161.208 330.834L162.128 328.69C164.882 329.299 167.641 329.914 170.395 330.219V332.363C170.395 337.907 177.748 342.5 186.965 342.5H196.157C205.344 342.5 212.726 337.907 212.726 332.363V330.524C215.48 329.914 218.544 329.604 221.298 328.994L221.913 330.834C224.057 336.067 232.325 337.602 240.932 334.203L249.509 330.834C258.086 327.465 263.295 320.692 261.455 315.454L261.15 314.229C263.904 312.7 266.353 311.17 268.808 309.636L269.417 310.251C273.096 314.229 281.668 312.7 288.441 306.572L295.484 300.419C302.222 294.261 304.671 285.994 300.997 281.98L300.382 281.365C302.222 279.221 304.061 276.772 305.895 274.293L306.51 274.597C311.409 277.047 318.761 272.453 322.775 264.461L327.063 256.159C331.042 247.856 330.432 239.254 325.529 236.8L325.009 236.555C324.979 236.65 324.949 236.71 324.919 236.8L320.321 234.351L325.009 236.555C325.869 234.201 326.479 232.117 327.063 229.727C332.577 230.032 337.475 223.264 338.395 214.352L339.314 205.13C340.109 195.884 336.435 188.196 330.922 187.581ZM61.7262 220.75L61.1114 214.287C60.8065 212.453 58.9672 211.228 57.1328 211.533C55.2934 211.533 53.7639 213.373 53.7639 215.207L54.3737 221.67C52.5393 221.06 51.6196 217.996 51.0048 213.063L50.0851 203.846C49.7802 198.943 50.0851 195.854 51.6196 194.934L52.2294 201.397C52.2294 202.926 54.3737 204.766 56.2131 204.456C58.0525 204.151 59.8868 202.316 59.5819 200.477L58.9672 194.014C60.5016 194.624 61.4213 197.688 62.0311 202.621L62.9508 211.838C63.2557 216.772 63.2557 219.836 61.7262 220.75ZM64.7902 233.951C64.4803 233.951 64.4803 233.951 64.1754 234.261C64.1754 233.951 64.4803 233.951 64.7902 233.951ZM80.1351 264.706L77.0712 258.853C76.1515 257.323 73.7023 256.708 72.1728 257.628C70.6383 258.548 69.7186 260.692 70.0285 262.222L73.0875 268.075C71.2531 268.075 69.1088 265.625 66.9645 261.307L62.6759 253.005C60.5316 248.716 59.6119 245.622 60.8365 244.093L63.9005 249.941C64.8202 251.475 67.2694 252.39 68.7989 251.475C70.6383 250.555 71.558 248.106 70.6383 246.572L67.5743 240.724C69.4137 240.724 71.2531 243.173 73.7023 247.491L77.9909 255.794C80.1351 260.387 81.0548 263.451 80.1351 264.706ZM87.7926 278.516C88.0975 278.211 88.0975 277.906 88.4024 277.906C88.4024 278.211 88.0975 278.211 87.7926 278.516ZM113.854 301.549L108.956 297.265C107.426 296.035 105.282 296.345 104.052 297.875C102.828 299.099 102.828 301.549 104.052 302.778L108.956 307.062C107.426 307.677 104.667 306.147 100.993 302.778L93.9456 296.62C90.2718 293.251 88.4324 290.767 89.0472 288.933L93.9456 293.221C95.1702 294.446 97.6244 294.141 98.8489 292.911C100.378 291.382 100.074 288.933 98.8489 287.678L93.9456 283.39C95.4801 282.775 97.9293 284.309 101.603 287.983L108.651 294.141C112.324 297.57 114.469 300.019 113.854 301.549ZM119.367 306.482C119.677 305.867 119.982 305.562 120.287 304.952C119.982 305.562 119.982 306.177 119.367 306.482ZM147.578 325.841L153.706 328.29C152.171 329.514 149.107 329.209 144.514 327.37L135.937 324.001C131.343 322.472 128.589 320.632 128.589 318.763L134.712 321.212C136.247 321.827 138.696 320.907 139.311 319.068C140.225 317.538 139.311 315.089 137.471 314.474L131.343 312.025C132.568 311.105 135.632 311.72 140.225 312.945L148.802 316.314C153.396 318.153 156.155 319.683 156.155 321.552L150.027 319.103C148.498 318.183 146.353 319.408 145.738 321.247C145.129 323.081 146.048 325.196 147.578 325.841ZM198.176 333.188H204.914C203.994 335.027 200.935 335.642 196.032 335.642H186.845C181.637 335.642 178.573 334.723 177.963 333.188H184.701C186.23 333.188 188.069 331.354 188.069 329.514C188.069 327.675 186.535 325.841 184.701 325.841H177.963C178.882 324.306 181.941 323.696 186.845 323.696H196.032C201.24 323.696 204.304 324.306 204.914 325.841H198.176C196.337 325.841 194.807 327.675 194.807 329.514C194.807 331.354 196.647 333.188 198.176 333.188ZM246.905 323.971L238.333 327.34C233.734 329.179 230.675 329.484 229.446 328.26L235.574 325.811C237.103 325.196 238.023 323.051 237.413 321.212C236.798 319.378 234.654 318.458 232.82 319.068L226.692 321.522C226.692 319.987 229.446 318.153 234.349 316.619L242.926 313.25C247.52 311.415 250.584 310.8 251.808 312.025L245.68 314.474C243.846 315.089 243.231 317.233 243.846 319.068C244.456 320.602 246.6 321.827 248.13 321.212L254.258 318.763C254.287 320.297 251.498 322.132 246.905 323.971ZM290.461 295.426L283.418 301.584C279.739 304.952 276.985 306.482 275.45 305.867L280.354 301.584C281.578 300.354 281.578 297.905 280.354 296.345C279.434 295.121 276.675 294.811 275.45 296.035L270.552 300.324C270.247 298.49 272.082 296.035 275.45 292.636L282.498 286.484C286.172 283.115 288.931 281.58 290.461 282.195L285.557 286.484C284.028 287.708 284.333 290.157 285.557 291.382C286.787 292.911 289.236 293.221 290.461 291.997L295.359 287.708C295.974 289.572 294.134 292.027 290.461 295.426ZM295.054 276.372C295.359 276.372 295.359 276.372 295.669 276.682C295.359 276.682 295.359 276.372 295.054 276.372ZM318.976 233.646C318.671 233.646 318.361 233.646 317.751 233.341C318.056 233.341 318.671 233.341 318.976 233.646ZM322.955 244.093C324.184 245.622 323.265 248.686 321.12 253.005L316.832 261.307C314.383 265.59 312.543 268.075 310.704 268.075L313.768 262.222C314.383 260.692 313.463 258.243 311.928 257.323C310.399 256.403 307.95 257.323 307.03 258.853L303.966 264.706C302.741 263.171 303.966 260.417 306.11 256.099L310.399 247.796C312.543 243.203 314.383 240.724 316.217 240.724L313.158 246.572C312.238 248.106 313.463 250.246 314.992 251.165C316.832 252.085 319.281 251.475 319.896 249.941L322.955 244.093ZM332.757 204.181L331.842 213.403C331.227 218.301 330.002 221.395 328.468 222.01L329.083 215.547C329.083 213.708 327.553 211.868 325.714 211.563C323.874 211.258 322.04 212.788 321.73 214.627L321.12 221.09C319.586 220.17 319.586 217.106 319.896 212.178L320.815 202.956C321.425 198.058 322.345 194.964 323.874 194.349L323.265 200.812C323.265 202.651 324.794 204.181 326.634 204.491C328.468 204.796 330.307 203.261 330.612 201.732L331.227 195.269C332.757 196.188 333.371 199.252 332.757 204.181Z" fill="#2A4A73"/>
</svg>
