<svg width="385" height="385" viewBox="0 0 385 385" fill="none" xmlns="http://www.w3.org/2000/svg">
<rect width="385" height="385" rx="36" fill="#e9ecef"/>
<path d="M93 63H293V256.409L193 322L93 256.409V63Z" fill="#292929"/>
<path d="M144.201 104.227V93.0909H188.448V104.227H173.135V144H159.513V104.227H144.201ZM240.575 118.545C240.575 124.213 239.473 128.994 237.269 132.888C235.065 136.766 232.09 139.708 228.345 141.713C224.6 143.702 220.424 144.696 215.816 144.696C211.176 144.696 206.984 143.693 203.238 141.688C199.51 139.666 196.543 136.717 194.339 132.839C192.152 128.944 191.058 124.18 191.058 118.545C191.058 112.878 192.152 108.105 194.339 104.227C196.543 100.333 199.51 97.3913 203.238 95.4027C206.984 93.3975 211.176 92.3949 215.816 92.3949C220.424 92.3949 224.6 93.3975 228.345 95.4027C232.09 97.3913 235.065 100.333 237.269 104.227C239.473 108.105 240.575 112.878 240.575 118.545ZM226.356 118.545C226.356 115.496 225.95 112.928 225.138 110.839C224.343 108.735 223.158 107.144 221.584 106.067C220.026 104.973 218.103 104.426 215.816 104.426C213.53 104.426 211.599 104.973 210.025 106.067C208.467 107.144 207.282 108.735 206.47 110.839C205.674 112.928 205.277 115.496 205.277 118.545C205.277 121.595 205.674 124.172 206.47 126.276C207.282 128.364 208.467 129.955 210.025 131.049C211.599 132.126 213.53 132.665 215.816 132.665C218.103 132.665 220.026 132.126 221.584 131.049C223.158 129.955 224.343 128.364 225.138 126.276C225.95 124.172 226.356 121.595 226.356 118.545ZM162.344 229H142.756V178.091H162.145C167.382 178.091 171.906 179.11 175.718 181.148C179.546 183.17 182.495 186.087 184.567 189.898C186.655 193.693 187.699 198.242 187.699 203.545C187.699 208.848 186.663 213.406 184.592 217.217C182.52 221.012 179.587 223.929 175.792 225.967C171.997 227.989 167.514 229 162.344 229ZM156.577 217.267H161.847C164.366 217.267 166.512 216.861 168.285 216.049C170.075 215.237 171.434 213.837 172.362 211.848C173.306 209.859 173.779 207.092 173.779 203.545C173.779 199.999 173.298 197.232 172.337 195.243C171.392 193.254 170 191.854 168.161 191.042C166.338 190.23 164.101 189.824 161.449 189.824H156.577V217.267ZM243.412 203.545C243.412 209.213 242.31 213.994 240.106 217.888C237.902 221.766 234.927 224.708 231.182 226.713C227.437 228.702 223.26 229.696 218.653 229.696C214.013 229.696 209.821 228.693 206.075 226.688C202.347 224.666 199.38 221.717 197.176 217.839C194.989 213.944 193.895 209.18 193.895 203.545C193.895 197.878 194.989 193.105 197.176 189.227C199.38 185.333 202.347 182.391 206.075 180.403C209.821 178.397 214.013 177.395 218.653 177.395C223.26 177.395 227.437 178.397 231.182 180.403C234.927 182.391 237.902 185.333 240.106 189.227C242.31 193.105 243.412 197.878 243.412 203.545ZM229.193 203.545C229.193 200.496 228.787 197.928 227.975 195.839C227.18 193.735 225.995 192.144 224.42 191.067C222.863 189.973 220.94 189.426 218.653 189.426C216.366 189.426 214.436 189.973 212.862 191.067C211.304 192.144 210.119 193.735 209.307 195.839C208.511 197.928 208.114 200.496 208.114 203.545C208.114 206.595 208.511 209.172 209.307 211.276C210.119 213.364 211.304 214.955 212.862 216.049C214.436 217.126 216.366 217.665 218.653 217.665C220.94 217.665 222.863 217.126 224.42 216.049C225.995 214.955 227.18 213.364 227.975 211.276C228.787 209.172 229.193 206.595 229.193 203.545Z" fill="#e9ecef"/>
</svg>
